<?xml version="1.0" encoding="utf-8"?>
<!-- Generator: Adobe Illustrator 21.0.2, SVG Export Plug-In . SVG Version: 6.00 Build 0)  -->
<svg version="1.1" id="Layer_1" xmlns="http://www.w3.org/2000/svg" xmlns:xlink="http://www.w3.org/1999/xlink" x="0px" y="0px"
	 viewBox="0 0 500 500" style="enable-background:new 0 0 500 500;" xml:space="preserve">
<style type="text/css">
	.st0{fill:#231F20;}
	.st1{fill:#FFFFFF;}
	.st2{fill:#35C1D5;}
	.st3{fill:#F2AACB;}
</style>
<path class="st0" d="M464.8,293.6c-5.4-7.4-12.3-13.6-19-18.8c-6.4-5.1-12-10.8-16.8-17.2c-4.7-6.5-8.6-13.8-12.3-21.3l-11-22.9
	c-3.8-7.7-7.5-15.2-11.8-22.9c-4.4-7.7-10.1-14.8-17-20.7c-6.9-5.8-15.3-10.2-24.1-12.3c-8.3-2-17-1.8-25.6-2
	c-3.9-0.1-9.1,0.3-12.8-1.2c-3.9-1.6-7.7-4.2-11.6-6.1c-8.1-3.5-16.5-6.2-25.2-8.1c-8.7-1.7-17.5-2.8-26.3-2.9
	c-17.7-0.1-35.3,3-51.9,8.8c-2.4,0.9-4.8,1.8-7.1,2.7c-5.9,2.4-13,3.5-19.1,4.7c-8.7,1.8-17.6,1.9-26.1,3.9
	c-8.8,2.1-17.2,6.5-24.1,12.3c-6.9,5.9-12.6,13-17,20.7c-4.3,7.7-8,15.2-11.8,22.9l-11,22.9c-3.7,7.5-7.6,14.8-12.3,21.3
	c-4.7,6.4-10.4,12.1-16.8,17.2c-6.7,5.3-13.6,11.4-19,18.8c-5.3,7.4-9.9,16.4-9.7,26.8c0.1,5.1,1.5,10.3,4,14.8
	c2.5,4.5,5.8,8.2,9.5,11.2c7.4,6.1,15.8,10,24.5,12.6c8.7,2.6,17.7,3.9,26.8,3.8c9.1-0.2,18.3-1.7,26.9-5.5
	c8.6-3.7,16.4-9.8,21.9-17.6c1.4-1.9,2.6-4,3.7-6l1.6-3.1l1.3-3c1.7-4,3.4-7.9,5-12c1.2-3.1,2.7-6,4.2-8.9c0.8-1.6,1.7-2.9,2.2-4.6
	c0.3-1.1,0.7-2.2,1.7-2.8c0.7-0.4,1.5-0.4,2.2-0.3c3.8,0.7,7.7,2,11.5,2.8l6,1.2l6,0.8c4,0.6,8,1,12,1.3c16,1.4,32.1,1.6,48,1.3
	c15.9-0.2,31.9-0.8,47.8-2.3c4-0.3,8-0.7,12-1.2c4-0.4,8-1.1,12-1.7c4.8-0.8,9.6-1.8,14.3-3c2.2-0.5,4.6-1,6.8-1.8
	c2-0.7,4-0.3,5.6,1.2c1.3,1.3,2,3.1,2.5,4.8c1.2,4.5,2.5,8.9,4.1,13.3c1.6,4.1,3.2,8.1,5,12l1.3,3l1.6,3.1c1.1,2.1,2.3,4.1,3.7,6
	c5.5,7.8,13.3,13.9,21.9,17.6c8.6,3.8,17.8,5.4,26.9,5.5c9.1,0.1,18.1-1.2,26.8-3.8c8.7-2.7,17.1-6.6,24.5-12.6
	c3.7-3,7-6.8,9.5-11.2c2.5-4.5,3.9-9.6,4-14.8C474.7,310,470.1,300.9,464.8,293.6z"/>
<path class="st1" d="M456,300c-2.3-3.1-4.9-6.1-7.7-8.9c-2.8-2.9-5.8-5.4-9.1-8.2c-6.8-5.6-13.1-12.1-18.3-19.5
	c-5.2-7.3-9.1-15.3-12.7-23l-10.6-23.1c-3.5-7.6-7.3-15.3-11.1-22.5c-3.9-7.1-8.8-13.5-14.8-18.7c-4-3.5-30.6-21.1-34.3-9.8
	c-1.2,3.8,2.2,5.9,4.5,8.2c1.3,1.2,2.3,2.9,3.4,4.4c0.2,0.3,0.2,0.7-0.1,0.9c-0.2,0.2-0.5,0.2-0.7,0.1c-4.1-2-7.5-4.5-11-6.9
	c-3.6-2.3-6.9-5-10.6-7l-5.4-3.3l-5.6-2.9c-1.9-1-3.7-2-5.7-2.7l-5.8-2.6c-7.8-3-15.8-5.6-24-7.3c-8.2-1.6-16.6-2.4-25-2.5
	c-16.8-0.2-33.5,3.1-49.5,8.3c-8,2.7-15.8,5.8-23.5,9.5c-3.8,1.8-7.5,3.9-11.4,5.6c-2,0.8-4,1.6-5.9,2.6c-1,0.4-1.9,0.9-2.9,1.4
	c-0.5,0.3-4.6,3.4-4.9,3.4c-1.4-1.3-0.5-2.6,0.7-3.6c3.4-3,7-5.8,10.7-8.4c-1.3,0-2.6-0.1-3.9,0c-4,0.1-7.9,0.7-11.7,1.7
	c-7.6,2-14.7,5.8-20.6,11c-5.9,5.2-10.9,11.6-14.8,18.7c-3.9,7.2-7.6,14.9-11.1,22.5l-10.6,23.1c-3.6,7.7-7.6,15.6-12.7,23
	c-5.2,7.3-11.5,13.9-18.3,19.5c-3.4,2.8-6.3,5.2-9.1,8.2c-2.8,2.8-5.4,5.8-7.7,8.9c-4.5,6.3-7.7,13.4-7.5,20.2
	c0.1,6.8,3.8,12.9,9.6,17.6c5.8,4.7,13,8.1,20.6,10.4c7.6,2.2,15.5,3.5,23.3,3.4c7.8-0.1,15.7-1.4,22.6-4.5c7-3,13-7.7,17.4-13.8
	c1.2-1.5,2.1-3.1,3-4.8l1.3-2.6l1.3-2.8c1.7-3.8,3.4-7.6,4.9-11.5c1.3-3.4,3-7,3.9-10.5c0.5-2-0.7-6.6-2.1-8.3
	c-1.6-2-4.7-2.7-6.8-4.1c-2.9-2-5.8-3.9-8.5-6.2c-1.7-1.3-3-3.1-4.5-4.6c-1.4-1.6-2.6-3.5-3.8-5.3c-2.1-3.8-3.9-7.9-4.6-12.3
	c-1.6-8.7,0.2-17.3,3.1-25c3.1-7.7,7.3-14.7,12.7-20.9c0.6-0.7,1.5-0.7,2.2-0.2c0.6,0.5,0.7,1.4,0.3,2.1l0,0.1
	c-4.3,6.4-7.7,13.5-10,20.7c-2.3,7.2-3,14.8-1.4,21.8c0.7,3.5,2.3,6.7,4.1,9.7c1.1,1.4,2.1,2.9,3.3,4.2c1.3,1.2,2.4,2.6,4,3.7
	c5.6,4.6,12.3,8.1,19.5,10.7c14.3,5.1,29.8,7.5,45.4,9.1c15.6,1.4,31.3,1.8,47.1,1.6c15.8-0.2,31.5-0.7,47.2-2
	c3.9-0.3,7.8-0.7,11.7-1.2c3.9-0.4,7.8-0.9,11.6-1.5c7.7-1.2,15.3-2.6,22.7-4.8c7.3-2.2,14.4-5.1,20.2-9.4c2.8-2.2,5.2-4.8,6.9-7.8
	c1.7-3,2.6-6.4,2.9-9.9c0.3-3.6,0-7.3-0.6-11c-0.7-3.8-1.5-7.5-2.5-11.3c-2.1-7.5-4.5-15.2-6.3-22.9c-0.2-0.8,0.3-1.7,1.2-1.9
	c0.8-0.2,1.6,0.2,1.8,1c2.7,7.4,5.7,14.7,8.3,22.3c2.6,7.6,4.9,15.6,4.6,24.3c-0.2,4.3-1.2,8.8-3.3,12.8c-2.1,4-5.2,7.3-8.5,10.1
	c-3.4,2.6-7.1,4.8-10.8,6.6c0.1,0.1,0.1,0.2,0.2,0.2c0.1,0.3,0.3,0.7,0.4,1.1c0.3,0.7,0.7,1.6,1.1,2.5l2.3,5.4
	c1.5,3.6,2.7,7.6,4.2,11.4c1.5,3.9,3.1,7.7,4.9,11.5l1.3,2.8l1.3,2.6c0.9,1.6,1.9,3.3,3,4.8c4.4,6.1,10.4,10.8,17.4,13.8
	c7,3,14.8,4.4,22.7,4.5c7.8,0.1,15.8-1.2,23.3-3.4c7.5-2.2,14.8-5.7,20.6-10.4c5.8-4.7,9.5-10.8,9.6-17.6
	C463.7,313.4,460.4,306.2,456,300z M268.8,267.3c-1.2,1.5-3,2.5-4.8,2.9c-1.8,0.4-3.7,0.2-5.4-0.5l-1.3-0.6l-0.8-0.4
	c-0.5-0.3-1.1-0.5-1.6-0.6c-2.2-0.7-4.9-0.7-7.6-0.5c-5.5,0.3-11,1.2-16.9,1.7c-1.5,0.1-3.1,0.1-4.9-0.3c-0.8-0.1-1.8-0.6-2.7-1.1
	c-0.4-0.4-0.9-0.8-1.2-1.3c-0.3-0.5-0.6-1.1-0.7-1.7c-0.3-2.3,0.5-3.9,1.2-5.3c0.8-1.4,1.6-2.6,2.7-3.8c0.6-0.6,1.6-0.7,2.2-0.1
	c0.6,0.5,0.7,1.4,0.3,2l-0.1,0.1c-0.7,1-1.4,2.2-1.9,3.4c-0.5,1.1-0.7,2.4-0.5,2.9c-0.2,0.7,2.8,1.2,5.2,0.8
	c5.4-0.7,11.2-1.7,17-2.1c2.9-0.1,6.1-0.1,9.3,0.9c0.8,0.3,1.6,0.6,2.3,1l1.1,0.6l0.6,0.3c0.9,0.4,1.9,0.5,2.9,0.4
	c2-0.3,3.3-1.7,3.5-3.9c0.3-2.2-0.6-4.9-1.6-7.3l0-0.1c-0.3-0.8,0.1-1.7,0.9-2c0.7-0.3,1.6,0,1.9,0.7c1.5,2.6,2.8,5.5,2.8,8.9
	C270.6,263.9,270,265.8,268.8,267.3z"/>
<path class="st2" d="M184.3,236.7c-0.5,9.2-6.1,16.3-12.4,15.9c-6.3-0.4-11-8.1-10.5-17.2c0.5-9.2,6.1-16.3,12.4-15.9
	C180.2,219.8,184.8,227.6,184.3,236.7z M318.8,219.5c-6.3-0.4-11.9,6.7-12.4,15.9c-0.5,9.2,4.2,16.9,10.5,17.2
	c6.3,0.4,11.9-6.7,12.4-15.9C329.8,227.6,325.2,219.8,318.8,219.5z"/>
<path class="st3" d="M361.1,269.7c0,8-7.9,12.2-24.6,12.6c-17.5,0.5-24.6-4.7-24.6-12.6c0-8,11-14.4,24.6-14.4
	C350.1,255.3,361.1,261.8,361.1,269.7z M156,255.7c-13.6,0-24.6,6.4-24.6,14.4c0,8,7.9,12.2,24.6,12.6c17.5,0.5,24.6-4.7,24.6-12.6
	C180.6,262.1,169.5,255.7,156,255.7z"/>
</svg>
